PathFileType	4	(X/Y/Z)	C:/Users/opensim2020/Desktop/walking_exp_matlab/subject02_walking11_straight_01.trc																																																																																																																												
DataRate	CameraRate	NumFrames	NumMarkers	Units	OrigDataRate	OrigDataStartFrame	OrigNumFrames																																																																																																																								
100	100	6	42	mm	100	767	267																																																																																																																								
Frame#	Time	LFHD			RFHD			LBHD			RBHD			C7			T10			CLAV			STRN			RBAK			LSHO			LUPA			LELB			LFRM			LWRA			LWRB			LFIN			RSHO			RUPA			RELB			RFRM			RWRA			RWRB			RFIN			LASI			RASI			LPSI			RPSI			LTHI			LKNE			LTIB			LANK			LHEE			LTOE			RTHI			RKNE			RTIB			RANK			RHEE			RTOE			*39			*40			*41		
		X1	Y1	Z1	X2	Y2	Z2	X3	Y3	Z3	X4	Y4	Z4	X5	Y5	Z5	X6	Y6	Z6	X7	Y7	Z7	X8	Y8	Z8	X9	Y9	Z9	X10	Y10	Z10	X11	Y11	Z11	X12	Y12	Z12	X13	Y13	Z13	X14	Y14	Z14	X15	Y15	Z15	X16	Y16	Z16	X17	Y17	Z17	X18	Y18	Z18	X19	Y19	Z19	X20	Y20	Z20	X21	Y21	Z21	X22	Y22	Z22	X23	Y23	Z23	X24	Y24	Z24	X25	Y25	Z25	X26	Y26	Z26	X27	Y27	Z27	X28	Y28	Z28	X29	Y29	Z29	X30	Y30	Z30	X31	Y31	Z31	X32	Y32	Z32	X33	Y33	Z33	X34	Y34	Z34	X35	Y35	Z35	X36	Y36	Z36	X37	Y37	Z37	X38	Y38	Z38	X39	Y39	Z39	X40	Y40	Z40	X41	Y41	Z41	X42	Y42	Z42
																																																																																																																															
34	0.33	-972.72644	1739.21863	1466.8667	-971.85992	1715.58972	1609.82898	-1090.60815	1647.17139	1453.97534	-1101.64722	1619.30151	1594.26257	-1136.07019	1513.55945	1520.11035	-1203.8783	1244.05823	1521.66663	-998.79242	1442.7417	1507.74158	-956.26709	1266.82642	1521.6322	-1200.47571	1346.75879	1586.16431	-1067.05688	1487.14734	1338.92041	-1106.76465	1291.87964	1257.40356	-1132.87549	1153.17395	1247.33179	-1145.11743	1021.87537	1228.62805	-1105.66809	890.34454	1246.95142	-1154.23999	898.64691	1221.87952	-1142.52258	832.9187	1214.75623	-1052.0918	1479.53381	1704.75525	-1061.54688	1288.69421	1796.85632	-1028.84778	1144.19397	1813.74561	-979.65338	1033.86633	1824.04822	-915.95477	916.95605	1792.63794	-955.07019	906.02795	1832.70532	-905.93811	852.65924	1828.66052	-974.03009	975.49408	1400.28467	-994.04553	960.78064	1656.84888	-1188.51196	1020.8717	1462.2926	-1201.40698	1022.00934	1576.14612	-976.51294	674.33441	1323.91943	-932.12726	480.47299	1351.22266	-907.55194	288.78082	1344.76294	-803.93127	87.22901	1358.60461	-821.84088	50.81901	1413.04871	-647.28442	98.42473	1340.98901	-1118.22229	662.74231	1701.56262	-1153.1615	454.62369	1656.49573	-1229.54114	281.70923	1655.03198	-1275.35803	93.138	1611.41675	-1310.65186	39.94113	1552.48267	-1131.49084	30.42318	1643.59351	-1082.63782	1785.47278	1558.26575	2845.89941	1034.13989	-3356.90869	NaN	NaN	NaN
35	0.34	-966.09454	1738.60754	1465.61963	-964.86499	1714.89941	1608.58252	-1083.63416	1646.02136	1452.83972	-1094.34045	1618.14014	1593.16174	-1128.43921	1512.49475	1518.88513	-1196.13904	1243.02991	1520.74219	-991.12769	1441.7677	1506.69666	-948.15039	1265.98572	1521.02332	-1192.7572	1345.93933	1585.14905	-1059.19751	1485.94165	1337.802	-1099.07788	1290.74988	1256.34998	-1126.0238	1152.30591	1246.19238	-1139.02563	1021.33728	1227.52075	-1099.5531	889.43231	1246.94275	-1149.30212	897.9632	1220.16187	-1138.26062	832.08337	1213.15186	-1044.62842	1478.56091	1703.7605	-1054.30811	1287.62939	1795.74597	-1020.63782	1143.2843	1812.74292	-970.84955	1032.96082	1822.50269	-906.45471	917.03577	1791.78552	-945.67279	905.5697	1831.6239	-896.1123	852.55304	1827.67822	-965.75311	974.35077	1399.91394	-986.33484	959.71136	1656.6571	-1179.74561	1019.35425	1461.99011	-1193.47412	1020.93488	1575.50513	-966.29291	673.9599	1323.47046	-920.97522	480.53021	1350.67163	-897.06506	288.71915	1344.19067	-794.8902	87.01513	1358.46033	-812.18835	49.65057	1412.66467	-638.13098	97.2483	1341.08398	-1112.73792	662.30609	1701.49023	-1149.21887	454.46765	1656.38684	-1227.16077	282.09784	1654.62122	-1274.76538	94.0209	1611.13904	-1310.23315	41.00534	1552.05249	-1131.41577	30.50572	1643.79285	-1076.35461	1784.76294	1557.3573	2845.24414	1034.19763	-3360.43335	NaN	NaN	NaN
36	0.35	-959.24811	1737.83984	1464.25208	-957.78864	1714.14539	1607.11584	-1076.56299	1644.95105	1451.61523	-1087.09949	1617.02771	1591.91138	-1120.86182	1511.51904	1517.599	-1188.24573	1241.97705	1519.66809	-983.35065	1440.83557	1505.51514	-940.68054	1265.02197	1519.8125	-1185.11462	1344.85303	1583.77563	-1051.30664	1484.76416	1336.51111	-1091.60828	1289.54065	1254.8877	-1119.41809	1151.45886	1244.82373	-1133.16296	1020.41522	1225.83472	-1094.5603	888.42865	1245.31726	-1143.96106	897.56824	1218.31799	-1133.36914	830.97595	1211.72229	-1037.052	1477.71802	1702.64758	-1046.93774	1286.6167	1794.39246	-1012.72064	1142.53442	1811.90076	-962.26831	1032.51465	1821.50549	-897.18311	916.77704	1790.63391	-936.31732	905.12213	1830.40771	-886.55414	852.61053	1826.61963	-957.22778	973.51025	1399.41663	-978.41913	958.6463	1656.26807	-1171.66809	1018.30817	1461.34424	-1185.41345	1020.00299	1574.81287	-955.89441	673.94836	1322.64233	-909.91962	480.63556	1350.03625	-887.06799	288.69104	1343.49121	-786.87262	86.28219	1358.36035	-805.06873	49.47931	1412.57446	-630.24768	95.49035	1341.12646	-1106.81287	661.97394	1700.72766	-1145.06128	454.31262	1656.21924	-1224.80603	282.71677	1654.25049	-1274.21948	94.9149	1610.89941	-1309.76892	42.26111	1551.80322	-1131.33337	30.48721	1643.92395	-1069.65417	1783.69836	1556.03625	2845.27466	1034.21057	-3360.3269	NaN	NaN	NaN
37	0.36	-952.177	1737.25378	1462.95911	-950.76227	1713.63	1605.54749	-1069.46155	1643.90601	1450.19775	-1079.71362	1615.9176	1590.52881	-1113.13574	1510.52197	1516.17004	-1180.29431	1241.00989	1518.56873	-975.52094	1440.0033	1504.20557	-933.01538	1264.16333	1518.62817	-1177.68701	1344.47644	1582.95117	-1043.39709	1483.56433	1335.12256	-1084.44958	1288.54907	1253.61853	-1112.36572	1150.6095	1243.55811	-1127.02649	1019.97125	1224.46777	-1089.76843	886.87378	1243.00854	-1138.59985	897.04791	1216.53357	-1129.01111	830.50348	1209.5437	-1029.46643	1476.93091	1701.27856	-1039.38477	1285.69019	1792.82227	-1004.65259	1141.80127	1810.69495	-953.74603	1031.86682	1820.35303	-887.8302	916.99414	1789.71863	-927.32355	904.71088	1829.07336	-877.1261	852.55762	1825.4707	-948.53149	972.61475	1398.36755	-970.37183	957.54657	1655.56824	-1163.46362	1017.23456	1460.66882	-1177.4093	1019.26746	1574.27527	-945.45605	674.27118	1321.57446	-898.92487	480.74167	1349.28638	-877.62964	288.57764	1342.7832	-779.66772	85.24801	1358.50415	-797.83362	48.0056	1412.64697	-623.3595	93.16243	1341.10657	-1100.90466	661.66138	1700.03564	-1140.69897	454.23413	1656.24915	-1222.31873	283.39566	1653.99011	-1273.62744	96.11302	1610.87866	-1309.37976	43.75768	1551.61963	-1131.18323	30.35514	1644.07556	-1062.90039	1782.61938	1554.5719	2845.9707	1034.22046	-3356.96729	NaN	NaN	NaN
38	0.37	-945.56744	1736.72729	1461.12646	-943.71161	1713.08875	1603.9574	-1062.2124	1642.88489	1448.66541	-1072.28687	1614.9104	1589.0022	-1105.34583	1509.6261	1514.64771	-1172.19543	1240.07727	1517.43005	-967.56165	1439.2124	1502.74878	-924.58472	1263.5592	1517.70166	-1169.68372	1343.55505	1581.52429	-1035.42834	1482.50171	1333.6156	-1076.81287	1287.44409	1252.06702	-1105.60742	1149.8302	1241.91943	-1120.92029	1019.17877	1222.66187	-1084.56335	886.31018	1241.54858	-1133.29736	896.3407	1214.40601	-1123.99426	829.65826	1207.79639	-1021.55536	1476.21289	1699.90308	-1031.69873	1284.91699	1791.22034	-996.54694	1141.10754	1809.26697	-945.4613	1031.57593	1819.17822	-879.06293	916.71014	1788.36304	-918.30847	904.2605	1827.64612	-867.87671	852.44629	1824.29871	-939.81256	971.75214	1397.08704	-962.09045	956.53888	1654.65491	-1155.09705	1016.26843	1459.81189	-1169.00403	1018.39496	1573.3761	-934.49866	674.47504	1320.53979	-888.18677	480.7298	1348.46753	-868.7002	288.34631	1342.02905	-773.66168	84.10819	1358.58923	-792.73706	47.33904	1412.74963	-617.31702	90.54684	1341.28467	-1095.02026	661.40454	1699.40161	-1135.90601	454.18304	1656.19531	-1219.54626	284.17514	1653.78857	-1272.78772	97.34248	1610.90015	-1309.22095	45.87477	1551.78589	-1131.04602	30.25424	1644.21924	-1055.97351	1781.42297	1552.90527	2845.19263	1034.07043	-3360.42114	NaN	NaN	NaN
39	0.38	-938.47388	1736.27979	1459.46667	-936.58453	1712.69482	1602.11218	-1054.96362	1641.91919	1446.96631	-1064.79456	1614.0199	1587.34753	-1097.474	1508.82715	1513.0293	-1163.99951	1239.17566	1516.08887	-959.57904	1438.57202	1501.25708	-916.69531	1262.88489	1516.18188	-1161.50281	1342.67505	1580.08606	-1027.47717	1481.45618	1331.98145	-1069.18298	1286.46301	1250.62793	-1098.62012	1149.08154	1240.36511	-1114.55554	1018.5863	1220.90833	-1079.19092	885.20654	1239.39771	-1128.04797	895.93958	1212.42456	-1119.53552	829.26385	1205.44617	-1013.61975	1475.70313	1698.41724	-1023.91528	1284.3302	1789.58167	-988.46399	1140.49976	1807.78357	-937.17749	1031.21082	1817.68762	-869.97021	917.03516	1787.24414	-909.64874	903.93933	1826.08179	-858.97778	852.36469	1822.92639	-930.73102	971.28088	1395.745	-953.66675	955.53949	1653.45154	-1146.50452	1015.37518	1458.80481	-1160.39453	1017.54993	1572.27698	-923.22455	674.31079	1319.47107	-877.82214	480.63553	1347.52649	-860.47986	288.00143	1341.33801	-768.22913	82.5486	1358.80969	-787.98712	45.95884	1412.87854	-612.12732	87.61082	1341.52917	-1088.85608	661.23053	1698.6936	-1130.75867	454.14249	1656.27795	-1216.4281	285.08606	1653.64148	-1271.96887	98.89442	1611.15833	-1308.67615	47.66198	1551.89966	-1130.94165	30.3409	1644.42773	-1049.25696	1780.68542	1551.1897	2846.03125	1034.07385	-3357.02344	NaN	NaN	NaN
